# Blender v2.78 (sub 0) OBJ File: 'moneta.blend'
# www.blender.org
mtllib moneta.mtl
o moneta_Circle.007
v 0.861619 0.183351 0.000001
v 1.149656 0.195825 0.000001
v 1.410993 0.317576 0.000001
v 1.605846 0.530070 0.000001
v 1.704548 0.800955 0.000001
v 1.692074 1.088992 0.000001
v 1.570323 1.350329 0.000001
v 1.357829 1.545182 0.000001
v 1.086944 1.643884 0.000001
v 0.798907 1.631410 0.000001
v 0.537570 1.509659 0.000001
v 0.342717 1.297165 0.000001
v 0.244015 1.026280 0.000001
v 0.256489 0.738243 0.000001
v 0.378240 0.476905 0.000001
v 0.590734 0.282053 0.000001
v 0.861619 0.183351 0.096737
v 1.149656 0.195825 0.096737
v 1.410993 0.317576 0.096737
v 1.605846 0.530070 0.096737
v 1.704548 0.800955 0.096737
v 1.692074 1.088992 0.096737
v 1.570323 1.350329 0.096737
v 1.357829 1.545182 0.096737
v 1.086944 1.643884 0.096737
v 0.798907 1.631410 0.096737
v 0.537570 1.509659 0.096737
v 0.342717 1.297165 0.096737
v 0.244015 1.026280 0.096737
v 0.256489 0.738243 0.096737
v 0.378240 0.476905 0.096737
v 0.590734 0.282053 0.096737
vt 0.0001 0.0001
vt 0.0001 0.3356
vt 0.9999 0.3356
vt 0.9999 0.0001
vt 0.9999 0.3356
vt 0.9999 0.0001
vt 0.0001 0.0001
vt 0.0001 0.3356
vt 0.9999 0.3356
vt 0.9999 0.0001
vt 0.0001 0.0001
vt 0.0001 0.3356
vt 0.0001 0.0001
vt 0.0001 0.3356
vt 0.9999 0.3356
vt 0.9999 0.0001
vt 0.9999 0.3356
vt 0.9999 0.0001
vt 0.0001 0.0001
vt 0.0001 0.3356
vt 0.0001 0.0001
vt 0.0001 0.3356
vt 0.9999 0.3356
vt 0.9999 0.0001
vt 0.0001 0.0001
vt 0.0001 0.3356
vt 0.9999 0.3356
vt 0.9999 0.0001
vt 0.9999 0.3356
vt 0.9999 0.0001
vt 0.0001 0.0001
vt 0.0001 0.3356
vt 0.0001 0.0001
vt 0.0001 0.3356
vt 0.9999 0.3356
vt 0.9999 0.0001
vt 0.9999 0.3356
vt 0.9999 0.0001
vt 0.0001 0.0001
vt 0.0001 0.3356
vt 0.0001 0.0001
vt 0.0001 0.3356
vt 0.9999 0.3356
vt 0.9999 0.0001
vt 0.9999 0.3356
vt 0.9999 0.0001
vt 0.0001 0.0001
vt 0.0001 0.3356
vt 0.0001 0.0001
vt 0.0001 0.3356
vt 0.9999 0.3356
vt 0.9999 0.0001
vt 0.9999 0.3356
vt 0.9999 0.0001
vt 0.0001 0.0001
vt 0.0001 0.3356
vt 0.0001 0.0001
vt 0.0001 0.3356
vt 0.9999 0.3356
vt 0.9999 0.0001
vt 0.9999 0.3356
vt 0.9999 0.0001
vt 0.0001 0.0001
vt 0.0001 0.3356
vt 0.7023 0.3817
vt 0.6115 0.4193
vt 0.5421 0.4887
vt 0.5045 0.5795
vt 0.5045 0.6778
vt 0.5421 0.7685
vt 0.6115 0.8380
vt 0.7023 0.8756
vt 0.8006 0.8756
vt 0.8913 0.8380
vt 0.9608 0.7685
vt 0.9984 0.6778
vt 0.9984 0.5795
vt 0.9608 0.4887
vt 0.8913 0.4193
vt 0.8006 0.3817
vt 0.2986 0.3802
vt 0.1999 0.3802
vt 0.1087 0.4180
vt 0.0390 0.4878
vt 0.0012 0.5789
vt 0.0012 0.6776
vt 0.0390 0.7688
vt 0.1087 0.8386
vt 0.1999 0.8763
vt 0.2986 0.8763
vt 0.3898 0.8386
vt 0.4595 0.7688
vt 0.4973 0.6776
vt 0.4973 0.5789
vt 0.4595 0.4878
vt 0.3898 0.4180
vn 0.8067 0.5910 0.0000
vn 0.9714 0.2373 0.0000
vn -0.8067 -0.5910 -0.0000
vn -0.9714 -0.2373 -0.0000
vn 0.5191 0.8547 0.0000
vn -0.5191 -0.8547 -0.0000
vn 0.1525 0.9883 0.0000
vn 0.2373 -0.9714 -0.0000
vn -0.1525 -0.9883 -0.0000
vn -0.2373 0.9714 0.0000
vn 0.5910 -0.8067 0.0000
vn -0.5910 0.8067 0.0000
vn 0.8547 -0.5191 0.0000
vn -0.8547 0.5191 0.0000
vn 0.9883 -0.1525 0.0000
vn -0.9883 0.1525 0.0000
vn -0.0000 -0.0000 1.0000
vn 0.0000 0.0000 -1.0000
usemtl None
s 1
f 7/1/1 23/2/1 22/3/2 6/4/2
f 15/5/3 31/6/3 30/7/4 14/8/4
f 8/9/5 24/10/5 23/11/1 7/12/1
f 16/13/6 32/14/6 31/15/3 15/16/3
f 9/17/7 25/18/7 24/19/5 8/20/5
f 2/21/8 18/22/8 17/23/9 1/24/9
f 1/25/9 17/26/9 32/27/6 16/28/6
f 10/29/10 26/30/10 25/31/7 9/32/7
f 3/33/11 19/34/11 18/35/8 2/36/8
f 11/37/12 27/38/12 26/39/10 10/40/10
f 4/41/13 20/42/13 19/43/11 3/44/11
f 12/45/14 28/46/14 27/47/12 11/48/12
f 5/49/15 21/50/15 20/51/13 4/52/13
f 13/53/16 29/54/16 28/55/14 12/56/14
f 6/57/2 22/58/2 21/59/15 5/60/15
f 14/61/4 30/62/4 29/63/16 13/64/16
f 18/65/17 19/66/17 20/67/17 21/68/17 22/69/17 23/70/17 24/71/17 25/72/17 26/73/17 27/74/17 28/75/17 29/76/17 30/77/17 31/78/17 32/79/17 17/80/17
f 2/81/18 1/82/18 16/83/18 15/84/18 14/85/18 13/86/18 12/87/18 11/88/18 10/89/18 9/90/18 8/91/18 7/92/18 6/93/18 5/94/18 4/95/18 3/96/18
