# Blender v2.78 (sub 0) OBJ File: 'manifesto.blend'
# www.blender.org
mtllib manifesto.mtl
o manifesto_Scritta.000
v 0.000027 0.604582 -2.969414
v 0.000027 0.604579 2.969362
v 0.000027 3.023235 -3.003459
v 0.000027 3.023235 3.003424
v 0.000027 2.730900 -2.900266
v 0.000027 2.418171 -2.870118
v 0.000027 2.106452 -2.864842
v 0.000027 1.797452 -2.865916
v 0.000027 1.491064 -2.869289
v 0.000027 1.187575 -2.879269
v 0.000027 0.891123 -2.914087
v 0.000027 0.262626 -2.251429
v 0.000027 0.052482 -1.510175
v 0.000027 0.010890 -0.755133
v 0.000027 0.011923 -0.000021
v 0.000027 0.010887 0.755091
v 0.000027 0.052480 1.510133
v 0.000027 0.262624 2.251385
v 0.000027 0.891123 2.914042
v 0.000027 1.187575 2.879226
v 0.000027 1.491065 2.869247
v 0.000027 1.797453 2.865877
v 0.000027 2.106452 2.864804
v 0.000027 2.418171 2.870081
v 0.000027 2.730900 2.900230
v 0.000027 2.610789 2.275362
v 0.000027 2.297771 1.527977
v 0.000027 2.102661 0.768582
v 0.000027 2.036420 -0.000018
v 0.000027 2.102663 -0.768617
v 0.000027 2.297773 -1.528012
v 0.000027 2.610789 -2.275397
v 0.000027 0.556787 -2.217199
v 0.000027 0.857732 -2.208524
v 0.000027 1.161430 -2.206257
v 0.000027 1.467636 -2.205989
v 0.000027 1.776292 -2.210682
v 0.000027 2.086068 -2.231992
v 0.000027 2.388205 -2.287527
v 0.000027 0.350963 -1.502569
v 0.000027 0.652203 -1.501048
v 0.000027 0.955971 -1.501039
v 0.000027 1.262120 -1.504093
v 0.000027 1.569797 -1.515779
v 0.000027 1.876138 -1.537117
v 0.000027 2.172802 -1.530825
v 0.000027 0.309675 -0.754119
v 0.000027 0.611024 -0.754094
v 0.000027 0.914523 -0.755262
v 0.000027 1.218956 -0.758412
v 0.000027 1.520538 -0.766113
v 0.000027 1.811925 -0.770213
v 0.000027 1.997144 -0.769022
v 0.000027 0.310997 -0.000020
v 0.000027 0.613178 -0.000019
v 0.000027 0.917450 -0.000018
v 0.000027 1.221811 -0.000018
v 0.000027 1.522067 -0.000018
v 0.000027 1.764002 -0.000018
v 0.000027 1.930856 -0.000018
v 0.000027 0.309672 0.754081
v 0.000027 0.611021 0.754057
v 0.000027 0.914520 0.755226
v 0.000027 1.218954 0.758376
v 0.000027 1.520536 0.766077
v 0.000027 1.811924 0.770178
v 0.000027 1.997143 0.768987
v 0.000027 0.350961 1.502527
v 0.000027 0.652202 1.501010
v 0.000027 0.955969 1.501002
v 0.000027 1.262119 1.504056
v 0.000027 1.569795 1.515743
v 0.000027 1.876136 1.537082
v 0.000027 2.172801 1.530790
v 0.000027 0.556786 2.217157
v 0.000027 0.857731 2.208483
v 0.000027 1.161430 2.206218
v 0.000027 1.467635 2.205951
v 0.000027 1.776291 2.210645
v 0.000027 2.086067 2.231956
v 0.000027 2.388204 2.287492
v 0.055169 -24.884733 -2.987726
v 0.055169 2.999797 -2.987726
v -0.055115 -24.884733 -2.987726
v -0.055115 2.999797 -2.987726
v 0.055169 -24.884733 -3.050559
v 0.055169 2.999797 -3.050559
v -0.055115 -24.884733 -3.050559
v -0.055115 2.999797 -3.050559
v 0.055169 -24.884733 2.987691
v 0.055169 2.999796 2.987691
v -0.055115 -24.884733 2.987691
v -0.055115 2.999796 2.987691
v 0.055169 -24.884733 3.050523
v 0.055169 2.999796 3.050523
v -0.055115 -24.884733 3.050523
v -0.055115 2.999796 3.050523
vt 0.8750 0.9702
vt 1.0000 0.9702
vt 1.0000 0.9993
vt 0.8750 0.9993
vt 0.0000 0.9702
vt 0.1250 0.9702
vt 0.1250 0.9993
vt 0.0000 0.9993
vt 0.2500 0.9702
vt 0.2500 0.9993
vt 0.3750 0.9702
vt 0.3750 0.9993
vt 0.5000 0.9702
vt 0.5000 0.9993
vt 0.6250 0.9702
vt 0.6250 0.9993
vt 0.7500 0.9702
vt 0.7500 0.9993
vt 0.0000 0.5715
vt 0.1250 0.5715
vt 0.1250 0.6245
vt 0.0000 0.6245
vt 0.1250 0.6774
vt 0.0000 0.6774
vt 0.1250 0.7304
vt 0.0000 0.7304
vt 0.1250 0.7834
vt 0.0000 0.7834
vt 0.1250 0.8363
vt 0.0000 0.8363
vt 0.1250 0.8893
vt 0.0000 0.8893
vt 0.2500 0.5715
vt 0.2500 0.6245
vt 0.2500 0.6774
vt 0.2500 0.7304
vt 0.2500 0.7834
vt 0.2500 0.8363
vt 0.2500 0.8893
vt 0.3750 0.5715
vt 0.3750 0.6245
vt 0.3750 0.6774
vt 0.3750 0.7304
vt 0.3750 0.7834
vt 0.3750 0.8363
vt 0.3750 0.8893
vt 0.5000 0.5715
vt 0.5000 0.6245
vt 0.5000 0.6774
vt 0.5000 0.7304
vt 0.5000 0.7834
vt 0.5000 0.8363
vt 0.5000 0.8893
vt 0.6250 0.5715
vt 0.6250 0.6245
vt 0.6250 0.6774
vt 0.6250 0.7304
vt 0.6250 0.7834
vt 0.6250 0.8363
vt 0.6250 0.8893
vt 0.7500 0.5715
vt 0.7500 0.6245
vt 0.7500 0.6774
vt 0.7500 0.7304
vt 0.7500 0.7834
vt 0.7500 0.8363
vt 0.7500 0.8893
vt 0.8750 0.5715
vt 0.8750 0.6245
vt 0.8750 0.6774
vt 0.8750 0.7304
vt 0.8750 0.7834
vt 0.8750 0.8363
vt 0.8750 0.8893
vt 1.0000 0.5715
vt 1.0000 0.6245
vt 1.0000 0.6774
vt 1.0000 0.7304
vt 1.0000 0.7834
vt 1.0000 0.8363
vt 1.0000 0.8893
vt 0.0039 0.5552
vt 0.0039 -0.0066
vt 0.9941 -0.0066
vt 0.9941 0.5552
vt 0.0039 0.5552
vt 0.0039 -0.0066
vt 0.9941 -0.0066
vt 0.9941 0.5552
vt 0.0039 0.5552
vt 0.0039 -0.0066
vt 0.9941 -0.0066
vt 0.9941 0.5552
vt 0.0039 0.5552
vt 0.0039 -0.0066
vt 0.9941 -0.0066
vt 0.9941 0.5552
vt 0.0039 -0.0066
vt 0.9941 -0.0066
vt 0.0039 0.5552
vt 0.9941 0.5552
vt 0.0039 0.5552
vt 0.9941 0.5552
vt 0.9941 -0.0066
vt 0.0039 -0.0066
vt 0.0039 0.5552
vt 0.9941 0.5552
vt 0.9941 -0.0066
vt 0.0039 -0.0066
vt 0.0039 0.5552
vt 0.9941 0.5552
vt 0.9941 -0.0066
vt 0.0039 -0.0066
vt 0.0039 0.5552
vt 0.9941 0.5552
vt 0.9941 -0.0066
vt 0.0039 -0.0066
vt 0.9941 -0.0066
vt 0.0039 -0.0066
vt 0.0039 0.5552
vt 0.9941 0.5552
vn -1.0000 -0.0000 0.0000
vn 0.0000 0.0000 1.0000
vn 0.0000 0.0000 -1.0000
vn 1.0000 -0.0000 0.0000
vn 0.0000 -1.0000 0.0000
vn 0.0000 1.0000 0.0000
usemtl Scritta.000
s off
f 81/1/1 25/2/1 4/3/1 26/4/1
f 5/5/1 39/6/1 32/7/1 3/8/1
f 39/6/1 46/9/1 31/10/1 32/7/1
f 46/9/1 53/11/1 30/12/1 31/10/1
f 53/11/1 60/13/1 29/14/1 30/12/1
f 60/13/1 67/15/1 28/16/1 29/14/1
f 67/15/1 74/17/1 27/18/1 28/16/1
f 74/17/1 81/1/1 26/4/1 27/18/1
f 1/19/1 12/20/1 33/21/1 11/22/1
f 11/22/1 33/21/1 34/23/1 10/24/1
f 10/24/1 34/23/1 35/25/1 9/26/1
f 9/26/1 35/25/1 36/27/1 8/28/1
f 8/28/1 36/27/1 37/29/1 7/30/1
f 7/30/1 37/29/1 38/31/1 6/32/1
f 6/32/1 38/31/1 39/6/1 5/5/1
f 12/20/1 13/33/1 40/34/1 33/21/1
f 33/21/1 40/34/1 41/35/1 34/23/1
f 34/23/1 41/35/1 42/36/1 35/25/1
f 35/25/1 42/36/1 43/37/1 36/27/1
f 36/27/1 43/37/1 44/38/1 37/29/1
f 37/29/1 44/38/1 45/39/1 38/31/1
f 38/31/1 45/39/1 46/9/1 39/6/1
f 13/33/1 14/40/1 47/41/1 40/34/1
f 40/34/1 47/41/1 48/42/1 41/35/1
f 41/35/1 48/42/1 49/43/1 42/36/1
f 42/36/1 49/43/1 50/44/1 43/37/1
f 43/37/1 50/44/1 51/45/1 44/38/1
f 44/38/1 51/45/1 52/46/1 45/39/1
f 45/39/1 52/46/1 53/11/1 46/9/1
f 14/40/1 15/47/1 54/48/1 47/41/1
f 47/41/1 54/48/1 55/49/1 48/42/1
f 48/42/1 55/49/1 56/50/1 49/43/1
f 49/43/1 56/50/1 57/51/1 50/44/1
f 50/44/1 57/51/1 58/52/1 51/45/1
f 51/45/1 58/52/1 59/53/1 52/46/1
f 52/46/1 59/53/1 60/13/1 53/11/1
f 15/47/1 16/54/1 61/55/1 54/48/1
f 54/48/1 61/55/1 62/56/1 55/49/1
f 55/49/1 62/56/1 63/57/1 56/50/1
f 56/50/1 63/57/1 64/58/1 57/51/1
f 57/51/1 64/58/1 65/59/1 58/52/1
f 58/52/1 65/59/1 66/60/1 59/53/1
f 59/53/1 66/60/1 67/15/1 60/13/1
f 16/54/1 17/61/1 68/62/1 61/55/1
f 61/55/1 68/62/1 69/63/1 62/56/1
f 62/56/1 69/63/1 70/64/1 63/57/1
f 63/57/1 70/64/1 71/65/1 64/58/1
f 64/58/1 71/65/1 72/66/1 65/59/1
f 65/59/1 72/66/1 73/67/1 66/60/1
f 66/60/1 73/67/1 74/17/1 67/15/1
f 17/61/1 18/68/1 75/69/1 68/62/1
f 68/62/1 75/69/1 76/70/1 69/63/1
f 69/63/1 76/70/1 77/71/1 70/64/1
f 70/64/1 77/71/1 78/72/1 71/65/1
f 71/65/1 78/72/1 79/73/1 72/66/1
f 72/66/1 79/73/1 80/74/1 73/67/1
f 73/67/1 80/74/1 81/1/1 74/17/1
f 18/68/1 2/75/1 19/76/1 75/69/1
f 75/69/1 19/76/1 20/77/1 76/70/1
f 76/70/1 20/77/1 21/78/1 77/71/1
f 77/71/1 21/78/1 22/79/1 78/72/1
f 78/72/1 22/79/1 23/80/1 79/73/1
f 79/73/1 23/80/1 24/81/1 80/74/1
f 80/74/1 24/81/1 25/2/1 81/1/1
f 82/82/2 83/83/2 85/84/2 84/85/2
f 84/86/1 85/87/1 89/88/1 88/89/1
f 88/90/3 89/91/3 87/92/3 86/93/3
f 86/94/4 87/95/4 83/96/4 82/97/4
f 84/86/5 88/98/5 86/99/5 82/97/5
f 89/100/6 85/87/6 83/96/6 87/101/6
f 90/102/3 92/103/3 93/104/3 91/105/3
f 92/106/1 96/107/1 97/108/1 93/109/1
f 96/110/2 94/111/2 95/112/2 97/113/2
f 94/114/4 90/115/4 91/116/4 95/117/4
f 92/106/5 90/115/5 94/118/5 96/119/5
f 97/120/6 95/121/6 91/116/6 93/109/6
