# Blender v2.78 (sub 0) OBJ File: 'lanterna_volante_lowpoliblend.blend'
# www.blender.org
mtllib lanterna_volante.mtl
o lanterna_Cube.000
v 0.666055 1.861689 0.341943
v 1.349993 1.861689 0.341943
v 1.349993 1.861689 -0.341994
v 0.666055 1.861689 -0.341994
v 0.363598 1.391812 0.438184
v 0.432157 1.697271 0.391581
v 0.518443 1.799477 0.344639
v 0.432157 1.697271 -0.391633
v 0.518443 1.799477 -0.344691
v 0.363598 1.391812 -0.438235
v 0.569815 1.391812 -0.644452
v 0.616417 1.697271 -0.575893
v 0.663359 1.799477 -0.489607
v 1.399631 1.697271 -0.575893
v 1.352689 1.799477 -0.489607
v 1.446234 1.391812 -0.644452
v 1.652450 1.391812 -0.438235
v 1.583891 1.697271 -0.391633
v 1.497605 1.799477 -0.344691
v 1.583891 1.697271 0.391581
v 1.497605 1.799477 0.344639
v 1.652450 1.391812 0.438184
v 0.562180 1.036323 0.655627
v 0.572921 0.686172 0.639831
v 1.443127 0.686172 0.639831
v 1.453868 1.036323 0.655627
v 0.611968 0.365130 0.582410
v 1.404080 0.365130 0.582410
v 1.590459 0.365130 -0.396082
v 1.590459 0.365130 0.396030
v 0.611968 0.365130 -0.582461
v 1.404080 0.365130 -0.582461
v 0.425589 0.365130 0.396030
v 0.425589 0.365130 -0.396082
v 0.616417 1.697271 0.575841
v 0.663359 1.799477 0.489555
v 0.569815 1.391812 0.644400
v 1.446234 1.391812 0.644400
v 1.399631 1.697271 0.575841
v 1.352689 1.799477 0.489555
v 1.647881 0.686172 -0.435129
v 1.663677 1.036323 -0.445870
v 1.663677 1.036323 0.445818
v 1.647881 0.686172 0.435077
v 0.572921 0.686172 -0.639883
v 0.562180 1.036323 -0.655678
v 1.453868 1.036323 -0.655678
v 1.443127 0.686172 -0.639883
v 0.368167 0.686172 0.435077
v 0.352371 1.036323 0.445818
v 0.352371 1.036323 -0.445870
v 0.368167 0.686172 -0.435129
v 0.537164 -0.004477 0.320159
v 0.537164 -0.004477 -0.320210
v 0.687839 -0.004477 0.470834
v 1.328208 -0.004477 0.470834
v 0.687839 -0.004477 -0.470885
v 1.328208 -0.004477 -0.470885
v 1.478884 -0.004477 -0.320210
v 1.478884 -0.004477 0.320159
v 0.450467 1.391812 -0.557583
v 0.509775 1.697271 -0.498275
v 0.578388 1.799477 -0.429662
v 0.504101 0.365130 -0.503949
v 0.440753 1.036323 -0.567296
v 0.454420 0.686172 -0.553630
v 0.600636 -0.004476 -0.407413
v 0.504101 0.365130 0.503897
v 0.509775 1.697271 0.498223
v 0.578388 1.799477 0.429611
v 0.450467 1.391812 0.557531
v 0.454420 0.686172 0.553579
v 0.440753 1.036323 0.567245
v 0.600636 -0.004476 0.407362
v 1.511947 0.365130 0.503897
v 1.565581 1.391812 0.557531
v 1.506273 1.697271 0.498223
v 1.437660 1.799477 0.429611
v 1.575295 1.036323 0.567245
v 1.561628 0.686172 0.553578
v 1.415412 -0.004476 0.407362
v 1.565581 1.391812 -0.557583
v 1.506273 1.697271 -0.498275
v 1.437661 1.799477 -0.429662
v 1.511947 0.365130 -0.503949
v 1.575294 1.036323 -0.567296
v 1.561628 0.686172 -0.553630
v 1.415412 -0.004476 -0.407413
vt 0.7860 0.2800
vt 0.8767 0.2911
vt 0.8763 0.8611
vt 0.7854 0.8711
vt 0.8767 0.2911
vt 0.9564 0.3221
vt 0.9566 0.8309
vt 0.8763 0.8611
vt 0.2989 0.6571
vt 0.3252 0.6727
vt 0.3445 0.6914
vt 0.3058 0.6927
vt 0.1291 0.9137
vt 0.1098 0.8949
vt 0.0905 0.8762
vt 0.1292 0.8749
vt 0.9925 0.3397
vt 0.9930 0.8133
vt 0.9564 0.3221
vt 0.9566 0.8309
vt 0.3474 0.8722
vt 0.3286 0.8915
vt 0.3099 0.9108
vt 0.3086 0.8721
vt 0.6105 0.3047
vt 0.6098 0.8438
vt 0.5057 0.8011
vt 0.5067 0.3454
vt 0.1251 0.6568
vt 0.1264 0.6955
vt 0.0877 0.6954
vt 0.1064 0.6761
vt 0.9564 0.3221
vt 0.9566 0.8309
vt 0.8763 0.8612
vt 0.8767 0.2911
vt 0.8803 0.1943
vt 0.9642 0.2368
vt 0.6957 0.2846
vt 0.7860 0.2800
vt 0.7854 0.8710
vt 0.6950 0.8651
vt 0.9925 0.3397
vt 0.9930 0.8133
vt 0.9929 0.8133
vt 0.9565 0.8308
vt 0.9564 0.3220
vt 0.9925 0.3397
vt 0.7868 0.1812
vt 0.8797 0.9700
vt 0.9608 0.9923
vt 0.7868 0.1812
vt 0.8803 0.1943
vt 0.7854 0.8710
vt 0.6950 0.8651
vt 0.6956 0.2846
vt 0.7859 0.2800
vt 0.9925 0.3398
vt 0.9930 0.8133
vt 0.6957 0.2846
vt 0.6950 0.8651
vt 0.9968 0.9923
vt 0.8797 0.9700
vt 0.9608 0.9923
vt 0.7868 0.1813
vt 0.8803 0.1944
vt 0.7860 0.2800
vt 0.9968 0.9923
vt 0.9642 0.2368
vt 0.9999 0.2713
vt 0.7867 0.1812
vt 0.8802 0.1943
vt 0.8766 0.2911
vt 0.6105 0.3047
vt 0.6098 0.8438
vt 0.5060 0.8010
vt 0.5064 0.3454
vt 0.6104 0.3046
vt 0.6097 0.8437
vt 0.7854 0.8711
vt 0.5068 0.3454
vt 0.6105 0.3047
vt 0.6098 0.8438
vt 0.5057 0.8011
vt 0.6926 0.9700
vt 0.7859 0.9700
vt 0.6950 0.8652
vt 0.6957 0.2846
vt 0.5068 0.3454
vt 0.5057 0.8010
vt 0.6926 0.9700
vt 0.6051 0.9700
vt 0.5007 0.9700
vt 0.6050 0.9700
vt 0.5014 0.2722
vt 0.6059 0.2151
vt 0.8763 0.8611
vt 0.5005 0.9700
vt 0.6051 0.9700
vt 0.6934 0.1871
vt 0.6060 0.2153
vt 0.6935 0.1871
vt 0.5017 0.2724
vt 0.6060 0.2153
vt 0.6935 0.1871
vt 0.6926 0.9700
vt 0.6051 0.9700
vt 0.9642 0.2367
vt 0.5017 0.2724
vt 0.6060 0.2153
vt 0.5017 0.2724
vt 0.6935 0.1871
vt 0.9999 0.2713
vt 0.8797 0.9700
vt 0.9608 0.9923
vt 0.9968 0.9923
vt 0.6926 0.9700
vt 0.7860 0.9700
vt 0.7860 0.9700
vt 0.5005 0.9700
vt 0.8797 0.9700
vt 0.9607 0.9923
vt 0.9967 0.9923
vt 0.7860 0.9700
vt 0.5005 0.9700
vt 0.9999 0.2712
vt 0.9642 0.2368
vt 0.9999 0.2713
vn -0.0000 -0.0066 -1.0000
vn 0.0000 0.1206 -0.9927
vn -0.9927 0.1206 -0.0000
vn -0.8430 0.4642 0.2719
vn -0.8430 0.4642 -0.2719
vn 0.1744 0.8017 0.5717
vn 0.4288 0.7952 0.4288
vn 0.5716 0.8017 0.1744
vn 0.1782 0.9677 0.1782
vn -0.1744 0.8017 -0.5716
vn -0.4288 0.7952 -0.4288
vn -0.5716 0.8017 -0.1744
vn -0.1782 0.9677 -0.1782
vn -0.5716 0.8017 0.1744
vn -0.2719 0.4642 -0.8430
vn 0.2719 0.4642 -0.8430
vn 0.5716 0.8017 -0.1744
vn 0.4288 0.7952 -0.4288
vn 0.1744 0.8017 -0.5717
vn 0.1782 0.9677 -0.1782
vn 0.9739 -0.2271 -0.0000
vn 0.9573 -0.2890 -0.0000
vn -0.1744 0.8017 0.5716
vn -0.1782 0.9677 0.1782
vn -0.4288 0.7952 0.4288
vn 0.8430 0.4642 -0.2719
vn 0.8430 0.4642 0.2719
vn 0.9927 0.1206 0.0000
vn -0.6990 0.1510 0.6990
vn -0.6191 0.4832 0.6191
vn -0.7993 0.1506 0.5818
vn -0.9942 -0.1076 0.0000
vn -1.0000 -0.0066 0.0000
vn -0.2719 0.4642 0.8430
vn 0.2719 0.4642 0.8430
vn -0.7071 -0.0082 0.7071
vn -0.8085 -0.0082 0.5885
vn -0.6990 0.1510 -0.6990
vn -0.7993 0.1506 -0.5818
vn -0.6191 0.4832 -0.6191
vn -0.7071 -0.0082 -0.7071
vn -0.5818 0.1506 -0.7993
vn -0.5885 -0.0082 -0.8085
vn 0.0000 -0.0066 1.0000
vn 0.0000 -0.1076 0.9942
vn -0.0000 -0.1076 -0.9942
vn 0.6990 0.1510 -0.6990
vn 0.5818 0.1506 -0.7993
vn 0.6191 0.4832 -0.6191
vn 0.7071 -0.0082 -0.7071
vn 0.7993 0.1506 -0.5818
vn 0.8085 -0.0082 -0.5885
vn 0.7071 -0.0082 0.7071
vn 0.6990 0.1510 0.6990
vn 0.5818 0.1506 0.7993
vn 0.5885 -0.0082 0.8085
vn -0.9739 -0.2271 0.0000
vn 0.0000 -0.2890 0.9573
vn 0.0000 -0.2271 0.9739
vn 1.0000 -0.0066 0.0000
vn -0.0000 -0.2890 -0.9573
vn -0.0000 -0.2271 -0.9739
vn -0.7007 -0.1338 0.7007
vn -0.5832 -0.1331 0.8013
vn -0.5885 -0.0082 0.8085
vn 0.9942 -0.1076 0.0000
vn -0.9573 -0.2890 0.0000
vn -0.8013 -0.1331 -0.5832
vn -0.7007 -0.1338 -0.7007
vn -0.6790 -0.2790 -0.6790
vn -0.7768 -0.2773 -0.5654
vn -0.6633 -0.3465 0.6633
vn -0.5528 -0.3428 0.7595
vn -0.5654 -0.2773 0.7768
vn -0.6790 -0.2790 0.6790
vn 0.6633 -0.3465 0.6633
vn 0.6790 -0.2790 0.6790
vn 0.5654 -0.2773 0.7768
vn 0.5528 -0.3428 0.7595
vn 0.0000 0.1206 0.9927
vn 0.6633 -0.3465 -0.6633
vn 0.5528 -0.3428 -0.7595
vn 0.5654 -0.2773 -0.7768
vn 0.6790 -0.2790 -0.6790
vn 0.7007 -0.1338 0.7007
vn 0.5832 -0.1331 0.8013
vn -0.8013 -0.1331 0.5832
vn -0.7768 -0.2773 0.5654
vn 0.7768 -0.2773 -0.5654
vn 0.7595 -0.3428 -0.5528
vn 0.7007 -0.1338 -0.7007
vn 0.8013 -0.1331 -0.5832
vn 0.7768 -0.2773 0.5654
vn 0.8013 -0.1331 0.5832
vn 0.6191 0.4832 0.6191
vn -0.6633 -0.3465 -0.6633
vn -0.5654 -0.2773 -0.7768
vn -0.5528 -0.3428 -0.7595
vn -0.7595 -0.3428 0.5528
vn -0.5832 -0.1331 -0.8013
vn 0.7993 0.1506 0.5818
vn 0.5832 -0.1331 -0.8013
vn 0.5885 -0.0082 -0.8085
vn -0.8085 -0.0082 -0.5885
vn -0.7595 -0.3428 -0.5528
vn -0.5818 0.1506 0.7993
vn 0.8085 -0.0082 0.5885
vn 0.7595 -0.3428 0.5528
usemtl Material.000
s 1
f 46/1/1 11/2/2 16/3/2 47/4/1
f 5/5/3 6/6/4 8/7/5 10/8/3
f 40/9/6 78/10/7 21/11/8 2/12/9
f 13/13/10 63/14/11 9/15/12 4/16/13
f 7/17/14 9/18/12 8/7/5 6/6/4
f 11/2/2 12/19/15 14/20/16 16/3/2
f 19/21/17 84/22/18 15/23/19 3/24/20
f 29/25/21 30/26/21 60/27/22 59/28/22
f 36/29/23 1/30/24 7/31/14 70/32/25
f 18/33/26 20/34/27 22/35/28 17/36/28
f 71/37/29 69/38/30 6/6/4 5/5/31
f 49/39/32 50/40/33 51/41/33 52/42/32
f 13/43/10 15/44/19 14/20/16 12/19/15
f 36/45/23 35/46/34 39/47/35 40/48/6
f 7/31/14 1/30/24 4/16/13 9/15/12
f 73/49/36 71/37/29 5/5/31 50/40/37
f 61/50/38 10/8/39 8/7/5 62/51/40
f 65/52/41 61/53/38 11/2/42 46/1/43
f 23/54/44 24/55/45 25/56/45 26/57/44
f 19/58/17 21/59/8 20/34/27 18/33/26
f 45/60/46 46/1/1 47/4/1 48/61/46
f 1/30/24 2/12/9 3/24/20 4/16/13
f 13/13/10 4/16/13 3/24/20 15/23/19
f 8/7/5 9/18/12 63/62/11 62/51/40
f 2/12/9 21/11/8 19/21/17 3/24/20
f 82/63/47 16/3/48 14/20/16 83/64/49
f 86/65/50 82/66/47 17/36/51 42/67/52
f 14/20/16 15/44/19 84/68/18 83/64/49
f 12/19/15 62/69/40 63/70/11 13/43/10
f 79/71/53 76/72/54 38/73/55 26/57/56
f 33/74/57 49/39/32 52/42/32 34/75/57
f 55/76/58 56/77/58 28/78/59 27/79/59
f 17/36/28 22/35/28 43/80/60 42/67/60
f 57/81/61 31/82/62 32/83/62 58/84/61
f 72/85/63 24/55/64 23/54/65 73/86/36
f 42/67/60 43/80/60 44/87/66 41/88/66
f 24/55/45 27/79/59 28/78/59 25/56/45
f 41/88/66 44/87/66 30/26/21 29/25/21
f 53/89/67 33/74/57 34/75/57 54/90/67
f 52/42/68 66/91/69 64/92/70 34/75/71
f 74/93/72 55/76/73 27/79/74 68/94/75
f 81/95/76 75/96/77 28/78/78 56/77/79
f 23/54/44 26/57/44 38/73/80 37/97/80
f 88/98/81 58/84/82 32/83/83 85/99/84
f 80/100/85 25/56/86 28/78/78 75/96/77
f 49/39/87 33/74/88 68/101/75 72/102/63
f 88/103/81 85/104/84 29/25/89 59/28/90
f 85/104/84 87/105/91 41/88/92 29/25/89
f 30/26/93 44/87/94 80/106/85 75/107/77
f 76/72/54 77/108/95 39/47/35 38/73/55
f 67/109/96 64/110/70 31/82/97 57/81/98
f 74/111/72 68/101/75 33/74/88 53/89/99
f 64/110/70 66/112/69 45/60/100 31/82/97
f 1/30/24 36/29/23 40/9/6 2/12/9
f 70/113/25 7/17/14 6/6/4 69/38/30
f 61/53/38 62/69/40 12/19/15 11/2/42
f 76/114/54 22/35/101 20/34/27 77/115/95
f 37/97/80 38/73/80 39/47/35 35/46/34
f 50/40/33 5/5/3 10/8/3 51/41/33
f 20/34/27 21/59/8 78/116/7 77/115/95
f 80/100/85 79/71/53 26/57/56 25/56/86
f 87/117/91 48/61/102 47/4/103 86/118/50
f 31/82/62 45/60/46 48/61/46 32/83/62
f 87/105/91 86/65/50 42/67/52 41/88/92
f 66/112/69 65/52/41 46/1/43 45/60/100
f 72/102/63 73/49/36 50/40/37 49/39/87
f 66/91/69 52/42/68 51/41/104 65/119/41
f 67/120/96 54/90/105 34/75/71 64/92/70
f 27/79/74 24/55/64 72/85/63 68/94/75
f 71/121/29 37/97/106 35/46/34 69/122/30
f 51/41/104 10/8/39 61/50/38 65/119/41
f 35/46/34 36/45/23 70/123/25 69/122/30
f 80/106/85 44/87/94 43/80/107 79/124/53
f 81/125/76 60/27/108 30/26/93 75/107/77
f 23/54/65 37/97/106 71/121/29 73/86/36
f 39/47/35 77/108/95 78/126/7 40/48/6
f 48/61/102 87/117/91 85/99/84 32/83/83
f 82/66/47 83/127/49 18/33/26 17/36/51
f 43/80/107 22/35/101 76/114/54 79/124/53
f 18/33/26 83/127/49 84/128/18 19/58/17
f 47/4/103 16/3/48 82/63/47 86/118/50
