# Blender v2.78 (sub 0) OBJ File: 'yinyang.blend'
# www.blender.org
mtllib yinyang.mtl
o yinyang_Sphere.001
v 0.671403 1.920561 -0.097493
v 0.366553 1.703788 -0.208474
v 0.162859 1.379365 -0.282630
v 0.091331 0.996681 -0.308670
v 0.162859 0.613998 -0.282630
v 0.366553 0.289574 -0.208474
v 0.671403 0.072802 -0.097493
v 0.748873 1.920561 -0.225139
v 0.509700 1.703788 -0.444334
v 0.349889 1.379365 -0.590795
v 0.293771 0.996681 -0.642225
v 0.349889 0.613998 -0.590795
v 0.509700 0.289574 -0.444334
v 0.748874 0.072802 -0.225139
v 0.869295 1.920561 -0.313422
v 0.732209 1.703788 -0.607459
v 0.640612 1.379365 -0.803929
v 0.608447 0.996681 -0.872920
v 0.640612 0.613998 -0.803929
v 0.732209 0.289574 -0.607459
v 0.869295 0.072802 -0.313422
v 1.030998 1.996953 0.033419
v 1.014334 1.920561 -0.348901
v 1.000207 1.703788 -0.673017
v 0.990767 1.379365 -0.889584
v 0.987453 0.996681 -0.965632
v 0.990767 0.613998 -0.889584
v 1.000207 0.289574 -0.673017
v 1.014334 0.072802 -0.348901
v 1.161910 1.920561 -0.326176
v 1.272892 1.703788 -0.631026
v 1.347048 1.379365 -0.834720
v 1.373088 0.996681 -0.906248
v 1.347048 0.613998 -0.834720
v 1.272892 0.289574 -0.631026
v 1.161910 0.072802 -0.326176
v 1.289557 1.920561 -0.248705
v 1.508751 1.703788 -0.487879
v 1.655213 1.379365 -0.647690
v 1.706643 0.996681 -0.703808
v 1.655213 0.613998 -0.647690
v 1.508751 0.289574 -0.487879
v 1.289556 0.072802 -0.248705
v 1.377839 1.920561 -0.128284
v 1.671877 1.703788 -0.265370
v 1.868346 1.379365 -0.356967
v 1.937338 0.996681 -0.389132
v 1.868346 0.613998 -0.356967
v 1.671877 0.289574 -0.265370
v 1.377839 0.072802 -0.128284
v 1.030998 -0.005790 0.033419
v 1.413319 1.920561 0.016755
v 1.737435 1.703788 0.002628
v 1.954002 1.379365 -0.006812
v 2.030050 0.996681 -0.010126
v 1.954002 0.613998 -0.006812
v 1.737435 0.289574 0.002628
v 1.413319 0.072802 0.016755
v 1.390594 1.920561 0.164331
v 1.695444 1.703788 0.275313
v 1.899138 1.379365 0.349469
v 1.970666 0.996681 0.375509
v 1.899138 0.613998 0.349469
v 1.695444 0.289574 0.275313
v 1.390594 0.072802 0.164331
v 1.313123 1.920561 0.291977
v 1.552297 1.703788 0.511172
v 1.712108 1.379365 0.657634
v 1.768226 0.996681 0.709064
v 1.712108 0.613998 0.657634
v 1.552297 0.289574 0.511172
v 1.313123 0.072802 0.291977
v 1.192702 1.920561 0.380260
v 1.329787 1.703788 0.674298
v 1.421385 1.379365 0.870767
v 1.453550 0.996681 0.939758
v 1.421385 0.613998 0.870767
v 1.329787 0.289574 0.674298
v 1.192702 0.072802 0.380260
v 1.047663 1.920561 0.415740
v 1.061790 1.703788 0.739855
v 1.071229 1.379365 0.956423
v 1.074544 0.996681 1.032471
v 1.071229 0.613998 0.956423
v 1.061790 0.289574 0.739855
v 1.047662 0.072802 0.415740
v 0.900086 1.920561 0.393014
v 0.789105 1.703788 0.697864
v 0.714949 1.379365 0.901559
v 0.688909 0.996681 0.973086
v 0.714949 0.613998 0.901559
v 0.789105 0.289574 0.697864
v 0.900086 0.072802 0.393014
v 0.772440 1.920561 0.315544
v 0.553246 1.703788 0.554718
v 0.406784 1.379365 0.714529
v 0.355354 0.996681 0.770646
v 0.406784 0.613998 0.714529
v 0.553246 0.289574 0.554718
v 0.772441 0.072802 0.315544
v 0.684158 1.920561 0.195123
v 0.390120 1.703788 0.332208
v 0.193651 1.379365 0.423806
v 0.124660 0.996681 0.455970
v 0.193651 0.613998 0.423806
v 0.390120 0.289574 0.332208
v 0.684158 0.072802 0.195123
v 0.648678 1.920561 0.050084
v 0.324562 1.703788 0.064211
v 0.107995 1.379365 0.073650
v 0.031947 0.996681 0.076965
v 0.107995 0.613998 0.073650
v 0.324562 0.289574 0.064211
v 0.648678 0.072802 0.050084
vt 0.4688 0.5000
vt 0.4062 0.5000
vt 0.4062 0.3659
vt 0.4688 0.3659
vt 0.4062 0.2317
vt 0.4688 0.2317
vt 0.4687 0.9026
vt 0.4062 0.9026
vt 0.4062 0.7684
vt 0.4688 0.7684
vt 0.4687 0.0975
vt 0.4062 0.0975
vt 0.5313 0.0000
vt 0.5312 0.0975
vt 0.4688 0.6342
vt 0.4062 0.6342
vt 0.4062 1.0000
vt 0.3437 0.9026
vt 0.3437 0.7684
vt 0.4687 0.0000
vt 0.3437 0.5000
vt 0.3437 0.3659
vt 0.3437 0.2317
vt 0.3437 0.6342
vt 0.3437 0.0975
vt 0.3437 1.0000
vt 0.2812 0.9026
vt 0.2812 0.7684
vt 0.4062 0.0000
vt 0.2812 0.3659
vt 0.2812 0.2317
vt 0.2812 0.6342
vt 0.2812 0.0975
vt 0.2812 0.5000
vt 0.2812 1.0000
vt 0.2187 0.9026
vt 0.2187 0.7684
vt 0.3437 0.0000
vt 0.2187 0.3659
vt 0.2187 0.2317
vt 0.2187 0.6342
vt 0.2187 0.0975
vt 0.2187 0.5000
vt 0.2187 1.0000
vt 0.1562 0.9026
vt 0.1562 0.7684
vt 0.2812 0.0000
vt 0.1562 0.3659
vt 0.1562 0.2317
vt 0.1562 0.6342
vt 0.1562 0.0975
vt 0.1562 0.5000
vt 0.1562 1.0000
vt 0.0937 0.9026
vt 0.0937 0.7684
vt 0.2187 0.0000
vt 0.0938 0.3659
vt 0.0937 0.2317
vt 0.0938 0.6342
vt 0.0937 0.0975
vt 0.0937 0.5000
vt 0.0937 1.0000
vt 0.0312 0.9026
vt 0.0312 0.7684
vt 0.1562 0.0000
vt 0.0312 0.2317
vt 0.0312 0.0975
vt 0.0312 0.6342
vt 0.0312 0.5000
vt 0.0937 0.0000
vt 0.0312 0.3659
vt 0.1045 0.9992
vt 0.2200 0.5768
vt 0.0498 0.5768
vt 0.0498 0.5077
vt 0.2200 0.5077
vt 0.0498 0.4385
vt 0.2200 0.4385
vt 0.2200 0.2309
vt 0.0498 0.2309
vt 0.0498 0.1617
vt 0.2200 0.1617
vt 0.0498 0.3693
vt 0.2200 0.3693
vt 0.7318 0.4220
vt 0.8544 0.6071
vt 0.6469 0.7826
vt 0.0498 0.3001
vt 0.2200 0.3001
vt 0.2200 0.1114
vt 0.9688 0.9026
vt 0.9063 0.9026
vt 0.9062 0.7684
vt 0.9688 0.7684
vt 0.9688 0.2317
vt 0.9062 0.2317
vt 0.9062 0.0975
vt 0.9688 0.0975
vt 0.9688 0.6342
vt 0.9062 0.6342
vt 0.9062 0.5000
vt 0.9688 0.5000
vt 0.6425 1.0000
vt 0.9062 0.3659
vt 0.9688 0.3659
vt 0.9688 0.0000
vt 0.8438 0.9026
vt 0.8438 0.7684
vt 0.8438 0.6342
vt 0.8438 0.5000
vt 0.6548 1.0000
vt 0.8438 0.3659
vt 0.8438 0.2317
vt 0.8438 0.0975
vt 0.9063 0.0000
vt 0.6568 1.0000
vt 0.7813 0.9026
vt 0.7813 0.6342
vt 0.7812 0.5000
vt 0.7813 0.3659
vt 0.7812 0.2317
vt 0.7812 0.7684
vt 0.7813 0.0975
vt 0.7188 0.9026
vt 0.7188 0.7684
vt 0.8438 0.0000
vt 0.6589 1.0016
vt 0.7188 0.5000
vt 0.7188 0.3659
vt 0.7188 0.2317
vt 0.7188 0.6342
vt 0.7188 0.0975
vt 0.6563 0.9026
vt 0.6562 0.7684
vt 0.7813 0.0000
vt 0.6562 0.5000
vt 0.6562 0.3659
vt 0.6562 0.2317
vt 0.6562 0.6342
vt 0.6563 0.0975
vt 0.6563 1.0000
vt 0.5938 0.9026
vt 0.5938 0.7684
vt 0.7188 0.0000
vt 0.5938 0.5000
vt 0.5938 0.3659
vt 0.5938 0.2317
vt 0.5938 0.6342
vt 0.5938 0.0975
vt 0.5938 1.0000
vt 0.5312 0.9026
vt 0.5312 0.7684
vt 0.6563 0.0000
vt 0.5312 0.5000
vt 0.5312 0.3659
vt 0.5312 0.2317
vt 0.5312 0.6342
vt 0.5313 1.0000
vt 0.5938 0.0000
vt 0.4687 1.0000
vn -0.9397 0.0000 -0.3421
vn -0.7372 0.0000 -0.6756
vn -0.6836 -0.3743 -0.6265
vn -0.8713 -0.3743 -0.3172
vn -0.5300 -0.6952 -0.4857
vn -0.6755 -0.6952 -0.2459
vn -0.3790 0.9150 -0.1380
vn -0.2974 0.9150 -0.2725
vn -0.5300 0.6952 -0.4857
vn -0.6755 0.6952 -0.2459
vn -0.3811 -0.9140 -0.1387
vn -0.2990 -0.9140 -0.2740
vn 0.0000 -1.0000 0.0000
vn -0.4052 -0.9140 0.0176
vn -0.8713 0.3743 -0.3172
vn -0.6836 0.3743 -0.6265
vn 0.0000 1.0000 0.0000
vn -0.1704 0.9150 -0.3656
vn -0.3038 0.6952 -0.6515
vn -0.4225 0.0000 -0.9063
vn -0.3918 -0.3743 -0.8404
vn -0.3038 -0.6952 -0.6515
vn -0.3918 0.3743 -0.8404
vn -0.1714 -0.9140 -0.3676
vn -0.0175 0.9150 -0.4030
vn -0.0313 0.6952 -0.7182
vn -0.0404 -0.3743 -0.9264
vn -0.0313 -0.6952 -0.7182
vn -0.0404 0.3743 -0.9264
vn -0.0176 -0.9140 -0.4052
vn -0.0435 0.0000 -0.9990
vn 0.1380 0.9150 -0.3790
vn 0.2459 0.6952 -0.6755
vn 0.3172 -0.3743 -0.8713
vn 0.2459 -0.6952 -0.6755
vn 0.3172 0.3743 -0.8713
vn 0.1387 -0.9140 -0.3811
vn 0.3421 0.0000 -0.9397
vn 0.2725 0.9150 -0.2974
vn 0.4857 0.6952 -0.5300
vn 0.6265 -0.3743 -0.6836
vn 0.4857 -0.6952 -0.5300
vn 0.6265 0.3743 -0.6836
vn 0.2740 -0.9140 -0.2990
vn 0.6756 0.0000 -0.7372
vn 0.3656 0.9150 -0.1704
vn 0.6515 0.6952 -0.3038
vn 0.8404 -0.3743 -0.3918
vn 0.6515 -0.6952 -0.3038
vn 0.8404 0.3743 -0.3918
vn 0.3676 -0.9140 -0.1714
vn 0.9063 0.0000 -0.4225
vn 0.4030 0.9150 -0.0175
vn 0.7182 0.6952 -0.0313
vn 0.7182 -0.6952 -0.0313
vn 0.4052 -0.9140 -0.0176
vn 0.9264 0.3743 -0.0404
vn 0.9990 0.0000 -0.0435
vn 0.9264 -0.3743 -0.0404
vn 0.3790 0.9150 0.1380
vn 0.6755 0.6952 0.2459
vn 0.8713 0.3743 0.3172
vn 0.6755 -0.6952 0.2459
vn 0.3811 -0.9140 0.1387
vn 0.9397 0.0000 0.3421
vn 0.8713 -0.3743 0.3172
vn 0.2974 0.9150 0.2725
vn 0.5300 0.6952 0.4857
vn 0.5300 -0.6952 0.4857
vn 0.2990 -0.9140 0.2740
vn 0.6836 0.3743 0.6265
vn 0.7372 0.0000 0.6756
vn 0.6836 -0.3743 0.6265
vn 0.1704 0.9150 0.3656
vn 0.3038 0.6952 0.6515
vn 0.3918 0.3743 0.8404
vn 0.4225 0.0000 0.9063
vn 0.3918 -0.3743 0.8404
vn 0.3038 -0.6952 0.6515
vn 0.1714 -0.9140 0.3676
vn 0.0175 0.9150 0.4030
vn 0.0404 0.3743 0.9264
vn 0.0435 0.0000 0.9990
vn 0.0404 -0.3743 0.9264
vn 0.0313 -0.6952 0.7182
vn 0.0313 0.6952 0.7182
vn 0.0176 -0.9140 0.4052
vn -0.1380 0.9150 0.3790
vn -0.2459 0.6952 0.6755
vn -0.3421 0.0000 0.9397
vn -0.3172 -0.3743 0.8713
vn -0.2459 -0.6952 0.6755
vn -0.3172 0.3743 0.8713
vn -0.1387 -0.9140 0.3811
vn -0.2725 0.9150 0.2974
vn -0.4857 0.6952 0.5300
vn -0.6756 0.0000 0.7372
vn -0.6265 -0.3743 0.6836
vn -0.4857 -0.6952 0.5300
vn -0.6265 0.3743 0.6836
vn -0.2740 -0.9140 0.2990
vn -0.3656 0.9150 0.1704
vn -0.6515 0.6952 0.3038
vn -0.9063 0.0000 0.4225
vn -0.8404 -0.3743 0.3918
vn -0.6515 -0.6952 0.3038
vn -0.8404 0.3743 0.3918
vn -0.3676 -0.9140 0.1714
vn -0.4030 0.9150 0.0175
vn -0.7182 0.6952 0.0313
vn -0.9990 0.0000 0.0435
vn -0.9264 -0.3743 0.0404
vn -0.7182 -0.6952 0.0313
vn -0.9264 0.3743 0.0404
usemtl None
s 1
f 4/1/1 11/2/2 12/3/3 5/4/4
f 5/4/4 12/3/3 13/5/5 6/6/6
f 1/7/7 8/8/8 9/9/9 2/10/10
f 7/11/11 6/6/6 13/5/5 14/12/12
f 51/13/13 114/14/14 7/11/11
f 3/15/15 10/16/16 11/2/2 4/1/1
f 2/10/10 9/9/9 10/16/16 3/15/15
f 22/17/17 8/8/8 1/7/7
f 8/8/8 15/18/18 16/19/19 9/9/9
f 7/11/11 14/12/12 51/20/13
f 11/2/2 18/21/20 19/22/21 12/3/3
f 12/3/3 19/22/21 20/23/22 13/5/5
f 9/9/9 16/19/19 17/24/23 10/16/16
f 13/5/5 20/23/22 21/25/24 14/12/12
f 10/16/16 17/24/23 18/21/20 11/2/2
f 22/26/17 15/18/18 8/8/8
f 15/18/18 23/27/25 24/28/26 16/19/19
f 14/12/12 21/25/24 51/29/13
f 19/22/21 27/30/27 28/31/28 20/23/22
f 16/19/19 24/28/26 25/32/29 17/24/23
f 20/23/22 28/31/28 29/33/30 21/25/24
f 17/24/23 25/32/29 26/34/31 18/21/20
f 22/35/17 23/27/25 15/18/18
f 18/21/20 26/34/31 27/30/27 19/22/21
f 23/27/25 30/36/32 31/37/33 24/28/26
f 21/25/24 29/33/30 51/38/13
f 27/30/27 34/39/34 35/40/35 28/31/28
f 24/28/26 31/37/33 32/41/36 25/32/29
f 28/31/28 35/40/35 36/42/37 29/33/30
f 25/32/29 32/41/36 33/43/38 26/34/31
f 22/44/17 30/36/32 23/27/25
f 26/34/31 33/43/38 34/39/34 27/30/27
f 30/36/32 37/45/39 38/46/40 31/37/33
f 29/33/30 36/42/37 51/47/13
f 34/39/34 41/48/41 42/49/42 35/40/35
f 31/37/33 38/46/40 39/50/43 32/41/36
f 35/40/35 42/49/42 43/51/44 36/42/37
f 32/41/36 39/50/43 40/52/45 33/43/38
f 22/53/17 37/45/39 30/36/32
f 33/43/38 40/52/45 41/48/41 34/39/34
f 37/45/39 44/54/46 45/55/47 38/46/40
f 36/42/37 43/51/44 51/56/13
f 41/48/41 48/57/48 49/58/49 42/49/42
f 38/46/40 45/55/47 46/59/50 39/50/43
f 42/49/42 49/58/49 50/60/51 43/51/44
f 39/50/43 46/59/50 47/61/52 40/52/45
f 22/62/17 44/54/46 37/45/39
f 40/52/45 47/61/52 48/57/48 41/48/41
f 44/54/46 52/63/53 53/64/54 45/55/47
f 43/51/44 50/60/51 51/65/13
f 49/58/49 57/66/55 58/67/56 50/60/51
f 45/55/47 53/64/54 54/68/57 46/59/50
f 46/59/50 54/68/57 55/69/58 47/61/52
f 50/60/51 58/67/56 51/70/13
f 47/61/52 55/69/58 56/71/59 48/57/48
f 48/57/48 56/71/59 57/66/55 49/58/49
f 22/72/17 52/63/53 44/54/46
f 52/73/53 59/74/60 60/75/61 53/76/54
f 53/76/54 60/75/61 61/77/62 54/78/57
f 57/79/55 64/80/63 65/81/64 58/82/56
f 54/78/57 61/77/62 62/83/65 55/84/58
f 22/85/17 59/86/60 52/87/53
f 55/84/58 62/83/65 63/88/66 56/89/59
f 56/89/59 63/88/66 64/80/63 57/79/55
f 58/82/56 65/81/64 51/90/13
f 59/91/60 66/92/67 67/93/68 60/94/61
f 64/95/63 71/96/69 72/97/70 65/98/64
f 61/99/62 68/100/71 69/101/72 62/102/65
f 22/103/17 66/92/67 59/91/60
f 62/102/65 69/101/72 70/104/73 63/105/66
f 63/105/66 70/104/73 71/96/69 64/95/63
f 60/94/61 67/93/68 68/100/71 61/99/62
f 65/98/64 72/97/70 51/106/13
f 66/92/67 73/107/74 74/108/75 67/93/68
f 68/100/71 75/109/76 76/110/77 69/101/72
f 22/111/17 73/107/74 66/92/67
f 69/101/72 76/110/77 77/112/78 70/104/73
f 70/104/73 77/112/78 78/113/79 71/96/69
f 67/93/68 74/108/75 75/109/76 68/100/71
f 71/96/69 78/113/79 79/114/80 72/97/70
f 72/97/70 79/114/80 51/115/13
f 22/116/17 80/117/81 73/107/74
f 75/109/76 82/118/82 83/119/83 76/110/77
f 76/110/77 83/119/83 84/120/84 77/112/78
f 77/112/78 84/120/84 85/121/85 78/113/79
f 74/108/75 81/122/86 82/118/82 75/109/76
f 78/113/79 85/121/85 86/123/87 79/114/80
f 80/117/81 87/124/88 88/125/89 81/122/86
f 79/114/80 86/123/87 51/126/13
f 22/127/17 87/124/88 80/117/81
f 83/119/83 90/128/90 91/129/91 84/120/84
f 84/120/84 91/129/91 92/130/92 85/121/85
f 81/122/86 88/125/89 89/131/93 82/118/82
f 85/121/85 92/130/92 93/132/94 86/123/87
f 82/118/82 89/131/93 90/128/90 83/119/83
f 87/124/88 94/133/95 95/134/96 88/125/89
f 86/123/87 93/132/94 51/135/13
f 90/128/90 97/136/97 98/137/98 91/129/91
f 91/129/91 98/137/98 99/138/99 92/130/92
f 88/125/89 95/134/96 96/139/100 89/131/93
f 92/130/92 99/138/99 100/140/101 93/132/94
f 89/131/93 96/139/100 97/136/97 90/128/90
f 22/141/17 94/133/95 87/124/88
f 94/133/95 101/142/102 102/143/103 95/134/96
f 93/132/94 100/140/101 51/144/13
f 97/136/97 104/145/104 105/146/105 98/137/98
f 98/137/98 105/146/105 106/147/106 99/138/99
f 95/134/96 102/143/103 103/148/107 96/139/100
f 99/138/99 106/147/106 107/149/108 100/140/101
f 96/139/100 103/148/107 104/145/104 97/136/97
f 22/150/17 101/142/102 94/133/95
f 101/142/102 108/151/109 109/152/110 102/143/103
f 100/140/101 107/149/108 51/153/13
f 104/145/104 111/154/111 112/155/112 105/146/105
f 105/146/105 112/155/112 113/156/113 106/147/106
f 102/143/103 109/152/110 110/157/114 103/148/107
f 106/147/106 113/156/113 114/14/14 107/149/108
f 103/148/107 110/157/114 111/154/111 104/145/104
f 22/158/17 108/151/109 101/142/102
f 108/151/109 1/7/7 2/10/10 109/152/110
f 107/149/108 114/14/14 51/159/13
f 112/155/112 5/4/4 6/6/6 113/156/113
f 109/152/110 2/10/10 3/15/15 110/157/114
f 113/156/113 6/6/6 7/11/11 114/14/14
f 110/157/114 3/15/15 4/1/1 111/154/111
f 108/151/109 22/160/17 1/7/7
f 111/154/111 4/1/1 5/4/4 112/155/112
f 73/107/74 80/117/81 81/122/86 74/108/75
