# Blender v2.78 (sub 0) OBJ File: 'sfondo.blend'
# www.blender.org
mtllib sfondo.mtl
o livello5_Plane.004
v 0.000001 -0.000000 0.667462
v 45.634514 -0.000000 0.667462
v 0.000001 25.669416 0.667463
v 45.634514 25.669416 0.667463
vt 0.0001 0.0001
vt 0.9961 0.0001
vt 0.9961 0.9999
vt 0.0001 0.9999
vn 0.0000 -0.0000 1.0000
usemtl None
s off
f 1/1/1 2/2/1 4/3/1 3/4/1
o livello4_Plane.003
v 0.000001 -0.000000 0.667462
v 45.634514 -0.000000 0.667462
v 0.000001 25.669416 0.667463
v 45.634514 25.669416 0.667463
vt 0.0001 0.0001
vt 0.9961 0.0001
vt 0.9961 0.9999
vt 0.0001 0.9999
vn 0.0000 -0.0000 1.0000
usemtl None_livello4.png
s off
f 5/5/2 6/6/2 8/7/2 7/8/2
o livello3_Plane.002
v 0.000001 -0.000000 0.667462
v 45.634514 -0.000000 0.667462
v 0.000001 25.669416 0.667463
v 45.634514 25.669416 0.667463
vt 0.0001 0.0001
vt 0.9961 0.0001
vt 0.9961 0.9999
vt 0.0001 0.9999
vn 0.0000 -0.0000 1.0000
usemtl None_livello3.png
s off
f 9/9/3 10/10/3 12/11/3 11/12/3
o livello2_Plane.001
v 0.000001 -0.000000 0.667462
v 45.634514 -0.000000 0.667462
v 0.000001 25.669416 0.667463
v 45.634514 25.669416 0.667463
vt 0.0001 0.0001
vt 0.9961 0.0001
vt 0.9961 0.9999
vt 0.0001 0.9999
vn 0.0000 -0.0000 1.0000
usemtl None_livello2.png
s off
f 13/13/4 14/14/4 16/15/4 15/16/4
o livello1_Plane
v 0.000001 -0.000000 0.667462
v 45.634514 -0.000000 0.667462
v 0.000001 25.669416 0.667463
v 45.634514 25.669416 0.667463
vt 0.0001 0.0001
vt 0.9961 0.0001
vt 0.9961 0.9999
vt 0.0001 0.9999
vn 0.0000 -0.0000 1.0000
usemtl None_livello1.png
s off
f 17/17/5 18/18/5 20/19/5 19/20/5
